<svg width="15" height="18" viewBox="0 0 15 18" fill="none" xmlns="http://www.w3.org/2000/svg">
<path d="M11.1114 0.385254C11.1869 1.37126 10.8751 2.34787 10.2421 3.10767C9.93904 3.48463 9.55438 3.7879 9.11711 3.99464C8.67984 4.20139 8.20136 4.30622 7.7177 4.30124C7.68684 3.82709 7.74974 3.35149 7.9028 2.90166C8.05585 2.45182 8.29607 2.03656 8.60971 1.67962C9.25118 0.948964 10.1444 0.486815 11.1114 0.385254Z" fill="#0F0F0F"/>
<path d="M12.8752 7.56165C12.5539 8.12783 12.381 8.76611 12.3726 9.41708C12.3734 10.1493 12.5897 10.8651 12.9946 11.4753C13.3994 12.0854 13.975 12.5629 14.6494 12.8481C14.3842 13.7095 13.9845 14.5235 13.4651 15.26C12.7676 16.3035 12.0362 17.3229 10.8754 17.3417C10.3233 17.3545 9.95062 17.1957 9.5623 17.0303C9.15725 16.8578 8.73516 16.6779 8.07467 16.6779C7.37419 16.6779 6.93321 16.8635 6.50789 17.0425C6.14035 17.1972 5.78451 17.347 5.28302 17.3678C4.17751 17.4087 3.33265 16.2541 2.60974 15.2204C1.16485 13.1095 0.0397713 9.27141 1.5481 6.65991C1.89631 6.03419 2.40067 5.50933 3.01203 5.13648C3.6234 4.76364 4.32092 4.55551 5.03663 4.53239C5.66363 4.51949 6.26527 4.76115 6.79275 4.97302C7.19615 5.13506 7.55617 5.27966 7.85098 5.27966C8.11014 5.27966 8.46012 5.14076 8.86799 4.97889C9.51048 4.72389 10.2966 4.41188 11.0977 4.49597C11.7117 4.51518 12.3127 4.67729 12.8531 4.96941C13.3934 5.26153 13.8582 5.67562 14.2105 6.17879C13.6559 6.51976 13.1966 6.99546 12.8752 7.56165Z" fill="#0F0F0F"/>
</svg>
