<svg width="72" height="72" viewBox="0 0 72 72" fill="none" xmlns="http://www.w3.org/2000/svg">
<rect width="72" height="72" rx="36" fill="#23270E"/>
<path d="M31.0002 36L34.3335 39.3333L41.8335 31.8333M45.8355 24.3309C46.1787 25.1609 46.8374 25.8207 47.6669 26.1651L50.5756 27.37C51.4056 27.7138 52.0651 28.3733 52.409 29.2034C52.7528 30.0335 52.7528 30.9662 52.409 31.7964L51.205 34.703C50.861 35.5335 50.8606 36.4671 51.2061 37.2972L52.408 40.203C52.5784 40.6141 52.6662 41.0548 52.6662 41.4999C52.6663 41.945 52.5787 42.3857 52.4084 42.7969C52.2381 43.2081 51.9884 43.5817 51.6736 43.8964C51.3589 44.2111 50.9852 44.4606 50.574 44.6308L47.6674 45.8348C46.8374 46.178 46.1777 46.8368 45.8332 47.6663L44.6284 50.575C44.2846 51.4052 43.6251 52.0647 42.795 52.4085C41.9649 52.7524 41.0323 52.7524 40.2022 52.4085L37.2956 51.2045C36.4655 50.8615 35.5332 50.8622 34.7036 51.2065L31.795 52.4096C30.9654 52.7526 30.0335 52.7524 29.2041 52.4088C28.3747 52.0652 27.7156 51.4065 27.3715 50.5773L26.1664 47.6677C25.8232 46.8376 25.1644 46.1778 24.3349 45.8334L21.4263 44.6285C20.5966 44.2849 19.9373 43.6258 19.5933 42.7961C19.2493 41.9665 19.2489 41.0342 19.592 40.2043L20.7959 37.2976C21.1389 36.4675 21.1382 35.5351 20.794 34.7055L19.5918 31.7947C19.4213 31.3835 19.3336 30.9428 19.3335 30.4977C19.3334 30.0527 19.4211 29.6119 19.5914 29.2007C19.7617 28.7895 20.0114 28.4159 20.3261 28.1013C20.6409 27.7866 21.0145 27.537 21.4258 27.3668L24.3323 26.1629C25.1616 25.82 25.821 25.162 26.1657 24.3334L27.3705 21.4247C27.7143 20.5946 28.3738 19.9351 29.2039 19.5912C30.0339 19.2474 30.9666 19.2474 31.7967 19.5912L34.7032 20.7952C35.5333 21.1382 36.4657 21.1375 37.2953 20.7933L40.2051 19.5931C41.0351 19.2494 41.9676 19.2495 42.7975 19.5933C43.6274 19.9371 44.2868 20.5964 44.6307 21.4263L45.8358 24.3359L45.8355 24.3309Z" stroke="#DAFF00" stroke-width="2.5" stroke-linecap="round" stroke-linejoin="round"/>
</svg>
