<svg width="24" height="25" viewBox="0 0 24 25" fill="none" xmlns="http://www.w3.org/2000/svg">
<rect width="24" height="25" fill="#474747"/>
<g clip-path="url(#clip0_517_13989)">
<rect width="1440" height="1024" transform="translate(-282 -305)" fill="#0F0F0F"/>
<rect x="-161.5" y="-11" width="479" height="47" rx="11.5" fill="white"/>
<rect x="-161.5" y="-11" width="479" height="47" rx="11.5" stroke="#292929"/>
<path d="M22.501 12.7332C22.501 11.8699 22.4296 11.2399 22.2748 10.5865H12.2153V14.4832H18.12C18.001 15.4515 17.3582 16.9099 15.9296 17.8898L15.9096 18.0203L19.0902 20.435L19.3106 20.4565C21.3343 18.6249 22.501 15.9298 22.501 12.7332Z" fill="#4285F4"/>
<path d="M12.2147 23C15.1075 23 17.536 22.0666 19.3099 20.4567L15.9289 17.8899C15.0242 18.5083 13.8099 18.9399 12.2147 18.9399C9.38136 18.9399 6.97663 17.1083 6.11941 14.5766L5.99376 14.5871L2.6865 17.0954L2.64325 17.2132C4.40513 20.6433 8.02417 23 12.2147 23Z" fill="#34A853"/>
<path d="M6.12003 14.5767C5.89385 13.9234 5.76295 13.2233 5.76295 12.5C5.76295 11.7767 5.89385 11.0767 6.10813 10.4234L6.10214 10.2842L2.75343 7.7356L2.64387 7.78667C1.91771 9.21002 1.50104 10.8084 1.50104 12.5C1.50104 14.1917 1.91771 15.79 2.64387 17.2133L6.12003 14.5767Z" fill="#FBBC05"/>
<path d="M12.2147 6.05997C14.2266 6.05997 15.5837 6.91163 16.3576 7.62335L19.3814 4.73C17.5243 3.03834 15.1075 2 12.2147 2C8.0242 2 4.40514 4.35665 2.64325 7.78662L6.10753 10.4233C6.97665 7.89166 9.3814 6.05997 12.2147 6.05997Z" fill="#EB4335"/>
</g>
<defs>
<clipPath id="clip0_517_13989">
<rect width="1440" height="1024" fill="white" transform="translate(-282 -305)"/>
</clipPath>
</defs>
</svg>
