<svg width="72" height="72" viewBox="0 0 72 72" fill="none" xmlns="http://www.w3.org/2000/svg">
<rect width="72" height="72" rx="36" fill="#EB5929"/>
<path d="M27.6665 32.6667V29.3333C27.6665 24.731 31.3975 21 35.9998 21C39.417 21 42.3538 23.0568 43.6398 26M35.9998 40.1667V43.5M30.6665 51H41.3332C44.1334 51 45.5336 51 46.6031 50.455C47.5439 49.9757 48.3088 49.2108 48.7882 48.27C49.3332 47.2004 49.3332 45.8003 49.3332 43V40.6667C49.3332 37.8664 49.3332 36.4663 48.7882 35.3967C48.3088 34.4559 47.5439 33.691 46.6031 33.2116C45.5336 32.6667 44.1334 32.6667 41.3332 32.6667H30.6665C27.8662 32.6667 26.4661 32.6667 25.3966 33.2116C24.4557 33.691 23.6908 34.4559 23.2115 35.3967C22.6665 36.4663 22.6665 37.8664 22.6665 40.6667V43C22.6665 45.8003 22.6665 47.2004 23.2115 48.27C23.6908 49.2108 24.4557 49.9757 25.3966 50.455C26.4661 51 27.8662 51 30.6665 51Z" stroke="white" stroke-width="2.5" stroke-linecap="round" stroke-linejoin="round"/>
</svg>
