<svg width="97" height="25" viewBox="0 0 97 25" fill="none" xmlns="http://www.w3.org/2000/svg">
<g clip-path="url(#clip0_9189_4208)">
<path d="M49.2347 1.10126C48.984 0.930028 48.6823 0.849762 48.3792 0.849762H43.5001C42.8148 0.849762 42.2206 1.32455 42.0669 1.9944L41.192 5.81409C41.014 6.59096 40.7191 8.01289 40.4213 9.57588C40.3995 9.68923 40.2428 9.70188 40.204 9.5934L37.4128 1.82463C37.2028 1.2399 36.6495 0.849762 36.0296 0.849762H30.6228C29.9375 0.849762 29.3434 1.32455 29.1897 1.9944L24.5283 22.3455C24.3591 23.0839 24.7718 23.8851 25.624 24.1225C25.6986 24.1434 25.7767 24.1502 25.8543 24.1502C26.4523 24.1502 29.21 24.1502 30.8164 24.1502C31.5017 24.1502 32.0953 23.6754 32.2486 23.0056L33.2234 18.7486C33.4431 17.7903 33.6973 16.5386 33.9432 15.2266C33.9645 15.1123 34.1231 15.1006 34.1614 15.2106L36.8968 23.1564C37.1015 23.7508 37.6597 24.1497 38.2863 24.1497H43.7513C44.4366 24.1497 45.0307 23.675 45.1845 23.0051L49.8458 2.65404C49.9787 2.0737 49.7522 1.45395 49.2352 1.10029L49.2347 1.10126Z" fill="#DAFF00"/>
<path d="M95.1284 3.89744C93.364 1.6748 90.5738 0.5 87.0595 0.5C83.5451 0.5 80.4256 1.61643 77.8158 3.72815C76.0398 5.16515 74.643 6.9777 73.6856 9.06608C73.6288 9.18964 73.4431 9.12445 73.4732 8.99214L74.9248 2.65502C75.0576 2.07467 74.8311 1.45492 74.3141 1.10126C74.0634 0.930031 73.7617 0.849765 73.4586 0.849765H67.998C67.5043 0.849765 67.0435 1.09835 66.7714 1.51135L61.1794 9.99473C61.1236 10.0794 60.9941 10.0536 60.9742 9.95435L59.3815 2.03284C59.2432 1.34449 58.6404 0.849765 57.9401 0.849765H52.3301C51.6448 0.849765 51.0506 1.32455 50.8969 1.99441L46.2355 22.3455C46.0949 22.9599 46.3568 23.6176 46.9393 23.9581C47.1653 24.0899 47.4253 24.1502 47.6867 24.1502C48.4452 24.1502 50.8135 24.1502 52.2617 24.1502C52.947 24.1502 53.5406 23.6754 53.6939 23.0056L54.8293 18.0491C54.8909 17.7805 54.9578 17.4804 55.0296 17.1437C55.0553 17.0236 55.227 17.0236 55.2512 17.1437L55.7202 19.469C55.8589 20.1569 56.4618 20.6516 57.1611 20.6516H60.9985C61.4946 20.6516 61.9573 20.4006 62.2289 19.9842L63.6034 17.8773C63.6728 17.7713 63.8367 17.8408 63.8086 17.9644C63.502 19.3022 62.8051 22.3455 62.8051 22.3455C62.6644 22.9599 62.9263 23.6176 63.5088 23.9581C63.7348 24.0899 63.9943 24.1502 64.2557 24.1502C65.0143 24.1502 67.383 24.1502 68.8312 24.1502C69.5165 24.1502 70.1102 23.6754 70.2634 23.0056L72.0482 15.2135C72.0783 15.0816 72.2708 15.104 72.2708 15.2393C72.2674 17.5096 72.9028 19.5264 74.1444 21.0904C75.9156 23.3213 78.7141 24.5005 82.2376 24.5005C85.7611 24.5005 88.8637 23.3797 91.4715 21.2592C94.0687 19.1475 95.8535 16.2331 96.6329 12.8303C97.4394 9.30833 96.905 6.13564 95.1279 3.89744H95.1284ZM80.4421 12.8303C81.1958 9.54038 83.4365 7.41455 86.1511 7.41455C87.1914 7.41455 87.9635 7.72247 88.4451 8.32909C89.0901 9.14196 89.2356 10.506 88.8549 12.1697C88.1168 15.3915 85.8256 17.5563 83.1528 17.5563C82.1028 17.5563 81.3268 17.2493 80.8456 16.6442C80.2064 15.8391 80.0633 14.4848 80.4421 12.8303Z" fill="#DAFF00"/>
<path d="M26.8088 8.37336C26.9087 7.92387 26.5697 7.49432 26.1119 7.46173H20.1333C19.8083 7.43838 19.497 7.62129 19.3752 7.92484C19.3466 7.99586 19.3233 8.0698 19.3059 8.14667L17.1714 17.4648C17.1525 17.5475 17.055 17.5786 16.9885 17.5261C16.7315 17.3213 16.4109 17.2065 16.0763 17.2065H9.08595L12.4189 2.65502C12.5518 2.07467 12.3253 1.45492 11.8083 1.10126C11.5575 0.930028 11.2558 0.849762 10.9527 0.849762H6.13181C5.44651 0.849762 4.85238 1.32455 4.69864 1.9944L0.0373014 22.3455C-0.0955886 22.9258 0.130906 23.5456 0.647916 23.8992C0.898661 24.0705 1.20033 24.1507 1.50346 24.1507H15.1611C15.583 24.1507 15.9705 23.9702 16.2416 23.6754C16.2853 23.6278 16.3609 23.6268 16.4046 23.6745C16.4749 23.7513 16.5549 23.8224 16.6432 23.8851C16.8974 24.0651 17.2068 24.1507 17.5186 24.1507H22.0791C22.7644 24.1507 23.3585 23.6759 23.5123 23.0061L26.8069 8.3826C26.8074 8.37968 26.8083 8.37676 26.8088 8.37384V8.37336Z" fill="#DAFF00"/>
<path d="M20.2555 6.61869L26.5979 6.61723C26.819 6.63085 27.0407 6.55205 27.1905 6.38811C27.3249 6.2412 27.4238 6.06705 27.4743 5.87392L28.2895 2.42249C28.3899 2.0411 28.2857 1.64026 28.0068 1.33428C27.7279 1.02829 27.3045 0.849762 26.8569 0.849762H22.0025C21.3172 0.849762 20.7231 1.26325 20.5693 1.84701L19.561 5.68323C19.56 5.68615 19.5595 5.68955 19.5586 5.69247C19.4431 6.14634 19.789 6.58951 20.2555 6.61869Z" fill="#DAFF00"/>
</g>
<defs>
<clipPath id="clip0_9189_4208">
<rect width="97" height="24" fill="white" transform="translate(0 0.5)"/>
</clipPath>
</defs>
</svg>
